<?xml version="1.0" encoding="UTF-8" standalone="no"?>
<!DOCTYPE svg PUBLIC "-//W3C//DTD SVG 1.1//EN"
 "http://www.w3.org/Graphics/SVG/1.1/DTD/svg11.dtd">
<!-- Generated by graphviz version 2.36.0 (20140111.2315)
 -->
<!-- Title: G Pages: 1 -->
<svg width="1078pt" height="3722pt"
 viewBox="0.00 0.00 1078.00 3722.00" xmlns="http://www.w3.org/2000/svg" xmlns:xlink="http://www.w3.org/1999/xlink">
<g id="graph0" class="graph" transform="scale(1 1) rotate(0) translate(4 3718)">
<title>G</title>
<polygon fill="white" stroke="none" points="-4,4 -4,-3718 1074,-3718 1074,4 -4,4"/>
<g id="clust1" class="cluster"><title>cluster_Global</title>
<path fill="none" stroke="gray" d="M20,-98C20,-98 1050,-98 1050,-98 1056,-98 1062,-104 1062,-110 1062,-110 1062,-3694 1062,-3694 1062,-3700 1056,-3706 1050,-3706 1050,-3706 20,-3706 20,-3706 14,-3706 8,-3700 8,-3694 8,-3694 8,-110 8,-110 8,-104 14,-98 20,-98"/>
<text text-anchor="middle" x="535" y="-3693.2" font-family="Times,serif" font-size="11.00" fill="gray">Global</text>
</g>
<g id="clust2" class="cluster"><title>cluster_\Gishiki</title>
<path fill="none" stroke="gray" d="M28,-106C28,-106 1042,-106 1042,-106 1048,-106 1054,-112 1054,-118 1054,-118 1054,-3666 1054,-3666 1054,-3672 1048,-3678 1042,-3678 1042,-3678 28,-3678 28,-3678 22,-3678 16,-3672 16,-3666 16,-3666 16,-118 16,-118 16,-112 22,-106 28,-106"/>
<text text-anchor="middle" x="535" y="-3665.2" font-family="Times,serif" font-size="11.00" fill="gray">Gishiki</text>
</g>
<g id="clust3" class="cluster"><title>cluster_\Gishiki\Logging</title>
<path fill="none" stroke="gray" d="M938,-2320C938,-2320 1034,-2320 1034,-2320 1040,-2320 1046,-2326 1046,-2332 1046,-2332 1046,-2380 1046,-2380 1046,-2386 1040,-2392 1034,-2392 1034,-2392 938,-2392 938,-2392 932,-2392 926,-2386 926,-2380 926,-2380 926,-2332 926,-2332 926,-2326 932,-2320 938,-2320"/>
<text text-anchor="middle" x="986" y="-2379.2" font-family="Times,serif" font-size="11.00" fill="gray">Logging</text>
</g>
<g id="clust4" class="cluster"><title>cluster_\Gishiki\Database</title>
<path fill="none" stroke="gray" d="M36,-2148C36,-2148 875,-2148 875,-2148 881,-2148 887,-2154 887,-2160 887,-2160 887,-3638 887,-3638 887,-3644 881,-3650 875,-3650 875,-3650 36,-3650 36,-3650 30,-3650 24,-3644 24,-3638 24,-3638 24,-2160 24,-2160 24,-2154 30,-2148 36,-2148"/>
<text text-anchor="middle" x="455.5" y="-3637.2" font-family="Times,serif" font-size="11.00" fill="gray">Database</text>
</g>
<g id="clust5" class="cluster"><title>cluster_\Gishiki\Database\Runtime</title>
<path fill="none" stroke="gray" d="M710,-3388C710,-3388 834,-3388 834,-3388 840,-3388 846,-3394 846,-3400 846,-3400 846,-3610 846,-3610 846,-3616 840,-3622 834,-3622 834,-3622 710,-3622 710,-3622 704,-3622 698,-3616 698,-3610 698,-3610 698,-3400 698,-3400 698,-3394 704,-3388 710,-3388"/>
<text text-anchor="middle" x="772" y="-3609.2" font-family="Times,serif" font-size="11.00" fill="gray">Runtime</text>
</g>
<g id="clust6" class="cluster"><title>cluster_\Gishiki\Database\Schema</title>
<path fill="none" stroke="gray" d="M720,-3146C720,-3146 824,-3146 824,-3146 830,-3146 836,-3152 836,-3158 836,-3158 836,-3368 836,-3368 836,-3374 830,-3380 824,-3380 824,-3380 720,-3380 720,-3380 714,-3380 708,-3374 708,-3368 708,-3368 708,-3158 708,-3158 708,-3152 714,-3146 720,-3146"/>
<text text-anchor="middle" x="772" y="-3367.2" font-family="Times,serif" font-size="11.00" fill="gray">Schema</text>
</g>
<g id="clust7" class="cluster"><title>cluster_\Gishiki\Database\Adapters</title>
<path fill="none" stroke="gray" d="M677,-2390C677,-2390 867,-2390 867,-2390 873,-2390 879,-2396 879,-2402 879,-2402 879,-3126 879,-3126 879,-3132 873,-3138 867,-3138 867,-3138 677,-3138 677,-3138 671,-3138 665,-3132 665,-3126 665,-3126 665,-2402 665,-2402 665,-2396 671,-2390 677,-2390"/>
<text text-anchor="middle" x="772" y="-3125.2" font-family="Times,serif" font-size="11.00" fill="gray">Adapters</text>
</g>
<g id="clust8" class="cluster"><title>cluster_\Gishiki\Database\Adapters\Utils</title>
<path fill="none" stroke="gray" d="M685,-2552C685,-2552 859,-2552 859,-2552 865,-2552 871,-2558 871,-2564 871,-2564 871,-3098 871,-3098 871,-3104 865,-3110 859,-3110 859,-3110 685,-3110 685,-3110 679,-3110 673,-3104 673,-3098 673,-3098 673,-2564 673,-2564 673,-2558 679,-2552 685,-2552"/>
<text text-anchor="middle" x="772" y="-3097.2" font-family="Times,serif" font-size="11.00" fill="gray">Utils</text>
</g>
<g id="clust9" class="cluster"><title>cluster_\Gishiki\Database\Adapters\Utils\QueryBuilder</title>
<path fill="none" stroke="gray" d="M693,-2848C693,-2848 851,-2848 851,-2848 857,-2848 863,-2854 863,-2860 863,-2860 863,-3070 863,-3070 863,-3076 857,-3082 851,-3082 851,-3082 693,-3082 693,-3082 687,-3082 681,-3076 681,-3070 681,-3070 681,-2860 681,-2860 681,-2854 687,-2848 693,-2848"/>
<text text-anchor="middle" x="772" y="-3069.2" font-family="Times,serif" font-size="11.00" fill="gray">QueryBuilder</text>
</g>
<g id="clust10" class="cluster"><title>cluster_\Gishiki\Database\Adapters\Utils\SQLGenerator</title>
<path fill="none" stroke="gray" d="M710,-2606C710,-2606 834,-2606 834,-2606 840,-2606 846,-2612 846,-2618 846,-2618 846,-2828 846,-2828 846,-2834 840,-2840 834,-2840 834,-2840 710,-2840 710,-2840 704,-2840 698,-2834 698,-2828 698,-2828 698,-2618 698,-2618 698,-2612 704,-2606 710,-2606"/>
<text text-anchor="middle" x="772" y="-2827.2" font-family="Times,serif" font-size="11.00" fill="gray">SQLGenerator</text>
</g>
<g id="clust11" class="cluster"><title>cluster_\Gishiki\Database\ORM</title>
<path fill="none" stroke="gray" d="M707,-2256C707,-2256 837,-2256 837,-2256 843,-2256 849,-2262 849,-2268 849,-2268 849,-2370 849,-2370 849,-2376 843,-2382 837,-2382 837,-2382 707,-2382 707,-2382 701,-2382 695,-2376 695,-2370 695,-2370 695,-2268 695,-2268 695,-2262 701,-2256 707,-2256"/>
<text text-anchor="middle" x="772" y="-2369.2" font-family="Times,serif" font-size="11.00" fill="gray">ORM</text>
</g>
<g id="clust12" class="cluster"><title>cluster_\Gishiki\Security</title>
<path fill="none" stroke="gray" d="M687,-1458C687,-1458 857,-1458 857,-1458 863,-1458 869,-1464 869,-1470 869,-1470 869,-2128 869,-2128 869,-2134 863,-2140 857,-2140 857,-2140 687,-2140 687,-2140 681,-2140 675,-2134 675,-2128 675,-2128 675,-1470 675,-1470 675,-1464 681,-1458 687,-1458"/>
<text text-anchor="middle" x="772" y="-2127.2" font-family="Times,serif" font-size="11.00" fill="gray">Security</text>
</g>
<g id="clust13" class="cluster"><title>cluster_\Gishiki\Security\Hashing</title>
<path fill="none" stroke="gray" d="M713,-1932C713,-1932 831,-1932 831,-1932 837,-1932 843,-1938 843,-1944 843,-1944 843,-2100 843,-2100 843,-2106 837,-2112 831,-2112 831,-2112 713,-2112 713,-2112 707,-2112 701,-2106 701,-2100 701,-2100 701,-1944 701,-1944 701,-1938 707,-1932 713,-1932"/>
<text text-anchor="middle" x="772" y="-2099.2" font-family="Times,serif" font-size="11.00" fill="gray">Hashing</text>
</g>
<g id="clust14" class="cluster"><title>cluster_\Gishiki\Security\Encryption</title>
<path fill="none" stroke="gray" d="M695,-1466C695,-1466 849,-1466 849,-1466 855,-1466 861,-1472 861,-1478 861,-1478 861,-1912 861,-1912 861,-1918 855,-1924 849,-1924 849,-1924 695,-1924 695,-1924 689,-1924 683,-1918 683,-1912 683,-1912 683,-1478 683,-1478 683,-1472 689,-1466 695,-1466"/>
<text text-anchor="middle" x="772" y="-1911.2" font-family="Times,serif" font-size="11.00" fill="gray">Encryption</text>
</g>
<g id="clust15" class="cluster"><title>cluster_\Gishiki\Security\Encryption\Asymmetric</title>
<path fill="none" stroke="gray" d="M703,-1662C703,-1662 841,-1662 841,-1662 847,-1662 853,-1668 853,-1674 853,-1674 853,-1884 853,-1884 853,-1890 847,-1896 841,-1896 841,-1896 703,-1896 703,-1896 697,-1896 691,-1890 691,-1884 691,-1884 691,-1674 691,-1674 691,-1668 697,-1662 703,-1662"/>
<text text-anchor="middle" x="772" y="-1883.2" font-family="Times,serif" font-size="11.00" fill="gray">Asymmetric</text>
</g>
<g id="clust16" class="cluster"><title>cluster_\Gishiki\Security\Encryption\Symmetric</title>
<path fill="none" stroke="gray" d="M707,-1474C707,-1474 837,-1474 837,-1474 843,-1474 849,-1480 849,-1486 849,-1486 849,-1642 849,-1642 849,-1648 843,-1654 837,-1654 837,-1654 707,-1654 707,-1654 701,-1654 695,-1648 695,-1642 695,-1642 695,-1486 695,-1486 695,-1480 701,-1474 707,-1474"/>
<text text-anchor="middle" x="772" y="-1641.2" font-family="Times,serif" font-size="11.00" fill="gray">Symmetric</text>
</g>
<g id="clust17" class="cluster"><title>cluster_\Gishiki\Services</title>
<path fill="none" stroke="gray" d="M938,-982C938,-982 1034,-982 1034,-982 1040,-982 1046,-988 1046,-994 1046,-994 1046,-1042 1046,-1042 1046,-1048 1040,-1054 1034,-1054 1034,-1054 938,-1054 938,-1054 932,-1054 926,-1048 926,-1042 926,-1042 926,-994 926,-994 926,-988 932,-982 938,-982"/>
<text text-anchor="middle" x="986" y="-1041.2" font-family="Times,serif" font-size="11.00" fill="gray">Services</text>
</g>
<g id="clust18" class="cluster"><title>cluster_\Gishiki\Algorithms</title>
<path fill="none" stroke="gray" d="M678,-114C678,-114 866,-114 866,-114 872,-114 878,-120 878,-126 878,-126 878,-660 878,-660 878,-666 872,-672 866,-672 866,-672 678,-672 678,-672 672,-672 666,-666 666,-660 666,-660 666,-126 666,-126 666,-120 672,-114 678,-114"/>
<text text-anchor="middle" x="772" y="-659.2" font-family="Times,serif" font-size="11.00" fill="gray">Algorithms</text>
</g>
<g id="clust19" class="cluster"><title>cluster_\Gishiki\Algorithms\Collections</title>
<path fill="none" stroke="gray" d="M686,-356C686,-356 858,-356 858,-356 864,-356 870,-362 870,-368 870,-368 870,-632 870,-632 870,-638 864,-644 858,-644 858,-644 686,-644 686,-644 680,-644 674,-638 674,-632 674,-632 674,-368 674,-368 674,-362 680,-356 686,-356"/>
<text text-anchor="middle" x="772" y="-631.2" font-family="Times,serif" font-size="11.00" fill="gray">Collections</text>
</g>
<g id="clust20" class="cluster"><title>cluster_\Gishiki\Algorithms\Strings</title>
<path fill="none" stroke="gray" d="M727,-222C727,-222 817,-222 817,-222 823,-222 829,-228 829,-234 829,-234 829,-336 829,-336 829,-342 823,-348 817,-348 817,-348 727,-348 727,-348 721,-348 715,-342 715,-336 715,-336 715,-234 715,-234 715,-228 721,-222 727,-222"/>
<text text-anchor="middle" x="772" y="-335.2" font-family="Times,serif" font-size="11.00" fill="gray">Strings</text>
</g>
<g id="clust21" class="cluster"><title>cluster_\Gishiki\Core</title>
<path fill="none" stroke="gray" d="M363,-680C363,-680 865,-680 865,-680 871,-680 877,-686 877,-692 877,-692 877,-1438 877,-1438 877,-1444 871,-1450 865,-1450 865,-1450 363,-1450 363,-1450 357,-1450 351,-1444 351,-1438 351,-1438 351,-692 351,-692 351,-686 357,-680 363,-680"/>
<text text-anchor="middle" x="614" y="-1437.2" font-family="Times,serif" font-size="11.00" fill="gray">Core</text>
</g>
<g id="clust22" class="cluster"><title>cluster_\Gishiki\Core\Router</title>
<path fill="none" stroke="gray" d="M371,-1144C371,-1144 827,-1144 827,-1144 833,-1144 839,-1150 839,-1156 839,-1156 839,-1366 839,-1366 839,-1372 833,-1378 827,-1378 827,-1378 371,-1378 371,-1378 365,-1378 359,-1372 359,-1366 359,-1366 359,-1156 359,-1156 359,-1150 365,-1144 371,-1144"/>
<text text-anchor="middle" x="599" y="-1365.2" font-family="Times,serif" font-size="11.00" fill="gray">Router</text>
</g>
<g id="clust23" class="cluster"><title>cluster_\Gishiki\Core\MVC</title>
<path fill="none" stroke="gray" d="M377,-786C377,-786 857,-786 857,-786 863,-786 869,-792 869,-798 869,-798 869,-1124 869,-1124 869,-1130 863,-1136 857,-1136 857,-1136 377,-1136 377,-1136 371,-1136 365,-1130 365,-1124 365,-1124 365,-798 365,-798 365,-792 371,-786 377,-786"/>
<text text-anchor="middle" x="617" y="-1123.2" font-family="Times,serif" font-size="11.00" fill="gray">MVC</text>
</g>
<g id="clust24" class="cluster"><title>cluster_\Gishiki\Core\MVC\Controller</title>
<path fill="none" stroke="gray" d="M385,-794C385,-794 849,-794 849,-794 855,-794 861,-800 861,-806 861,-806 861,-1096 861,-1096 861,-1102 855,-1108 849,-1108 849,-1108 385,-1108 385,-1108 379,-1108 373,-1102 373,-1096 373,-1096 373,-806 373,-806 373,-800 379,-794 385,-794"/>
<text text-anchor="middle" x="617" y="-1095.2" font-family="Times,serif" font-size="11.00" fill="gray">Controller</text>
</g>
<g id="clust25" class="cluster"><title>cluster_\Gishiki\Core\MVC\Controller\Plugins</title>
<path fill="none" stroke="gray" d="M703,-802C703,-802 841,-802 841,-802 847,-802 853,-808 853,-814 853,-814 853,-970 853,-970 853,-976 847,-982 841,-982 841,-982 703,-982 703,-982 697,-982 691,-976 691,-970 691,-970 691,-814 691,-814 691,-808 697,-802 703,-802"/>
<text text-anchor="middle" x="772" y="-969.2" font-family="Times,serif" font-size="11.00" fill="gray">Plugins</text>
</g>
<!-- \\Gishiki\\Logging\\LoggerManager -->
<g id="node1" class="node"><title>\\Gishiki\\Logging\\LoggerManager</title>
<polygon fill="none" stroke="black" points="1038,-2364 934,-2364 934,-2328 1038,-2328 1038,-2364"/>
<text text-anchor="middle" x="986" y="-2343.2" font-family="Courier,monospace" font-size="11.00">LoggerManager</text>
</g>
<!-- \\Gishiki\\Database\\Runtime\\SelectionCriteria -->
<g id="node2" class="node"><title>\\Gishiki\\Database\\Runtime\\SelectionCriteria</title>
<polygon fill="none" stroke="black" points="837.5,-3594 706.5,-3594 706.5,-3558 837.5,-3558 837.5,-3594"/>
<text text-anchor="middle" x="772" y="-3573.2" font-family="Courier,monospace" font-size="11.00">SelectionCriteria</text>
</g>
<!-- \\Gishiki\\Database\\Runtime\\FieldRelation -->
<g id="node3" class="node"><title>\\Gishiki\\Database\\Runtime\\FieldRelation</title>
<polygon fill="none" stroke="black" points="824,-3540 720,-3540 720,-3504 824,-3504 824,-3540"/>
<text text-anchor="start" x="738" y="-3525.2" font-family="Courier,monospace" font-size="11.00">«abstract»</text>
<text text-anchor="start" x="728" y="-3513.2" font-family="Courier,monospace" font-size="11.00">FieldRelation</text>
</g>
<!-- \\Gishiki\\Database\\Runtime\\ResultModifier -->
<g id="node4" class="node"><title>\\Gishiki\\Database\\Runtime\\ResultModifier</title>
<polygon fill="none" stroke="black" points="827.5,-3486 716.5,-3486 716.5,-3450 827.5,-3450 827.5,-3486"/>
<text text-anchor="middle" x="772" y="-3465.2" font-family="Courier,monospace" font-size="11.00">ResultModifier</text>
</g>
<!-- \\Gishiki\\Database\\Runtime\\FieldOrdering -->
<g id="node5" class="node"><title>\\Gishiki\\Database\\Runtime\\FieldOrdering</title>
<polygon fill="none" stroke="black" points="824,-3432 720,-3432 720,-3396 824,-3396 824,-3432"/>
<text text-anchor="start" x="738" y="-3417.2" font-family="Courier,monospace" font-size="11.00">«abstract»</text>
<text text-anchor="start" x="728" y="-3405.2" font-family="Courier,monospace" font-size="11.00">FieldOrdering</text>
</g>
<!-- \\Gishiki\\Database\\Schema\\Table -->
<g id="node6" class="node"><title>\\Gishiki\\Database\\Schema\\Table</title>
<polygon fill="none" stroke="black" points="799,-3352 745,-3352 745,-3316 799,-3316 799,-3352"/>
<text text-anchor="middle" x="772" y="-3331.2" font-family="Courier,monospace" font-size="11.00">Table</text>
</g>
<!-- \\Gishiki\\Database\\Schema\\ColumnType -->
<g id="node7" class="node"><title>\\Gishiki\\Database\\Schema\\ColumnType</title>
<polygon fill="none" stroke="black" points="814,-3298 730,-3298 730,-3262 814,-3262 814,-3298"/>
<text text-anchor="start" x="738" y="-3283.2" font-family="Courier,monospace" font-size="11.00">«abstract»</text>
<text text-anchor="start" x="738" y="-3271.2" font-family="Courier,monospace" font-size="11.00">ColumnType</text>
</g>
<!-- \\Gishiki\\Database\\Schema\\Column -->
<g id="node8" class="node"><title>\\Gishiki\\Database\\Schema\\Column</title>
<polygon fill="none" stroke="black" points="800.5,-3244 743.5,-3244 743.5,-3208 800.5,-3208 800.5,-3244"/>
<text text-anchor="middle" x="772" y="-3223.2" font-family="Courier,monospace" font-size="11.00">Column</text>
</g>
<!-- \\Gishiki\\Database\\Schema\\ColumnRelation -->
<g id="node9" class="node"><title>\\Gishiki\\Database\\Schema\\ColumnRelation</title>
<polygon fill="none" stroke="black" points="827.5,-3190 716.5,-3190 716.5,-3154 827.5,-3154 827.5,-3190"/>
<text text-anchor="middle" x="772" y="-3169.2" font-family="Courier,monospace" font-size="11.00">ColumnRelation</text>
</g>
<!-- \\Gishiki\\Database\\Adapters\\Utils\\QueryBuilder\\SQLiteQueryBuilder -->
<g id="node10" class="node"><title>\\Gishiki\\Database\\Adapters\\Utils\\QueryBuilder\\SQLiteQueryBuilder</title>
<polygon fill="none" stroke="black" points="841,-3054 703,-3054 703,-3018 841,-3018 841,-3054"/>
<text text-anchor="middle" x="772" y="-3033.2" font-family="Courier,monospace" font-size="11.00">SQLiteQueryBuilder</text>
</g>
<!-- \\Gishiki\\Database\\Adapters\\Utils\\QueryBuilder\\MySQLQueryBuilder -->
<g id="node11" class="node"><title>\\Gishiki\\Database\\Adapters\\Utils\\QueryBuilder\\MySQLQueryBuilder</title>
<polygon fill="none" stroke="black" points="837.5,-3000 706.5,-3000 706.5,-2964 837.5,-2964 837.5,-3000"/>
<text text-anchor="middle" x="772" y="-2979.2" font-family="Courier,monospace" font-size="11.00">MySQLQueryBuilder</text>
</g>
<!-- \\Gishiki\\Database\\Adapters\\Utils\\QueryBuilder\\PostgreSQLQueryBuilder -->
<g id="node12" class="node"><title>\\Gishiki\\Database\\Adapters\\Utils\\QueryBuilder\\PostgreSQLQueryBuilder</title>
<polygon fill="none" stroke="black" points="854.5,-2946 689.5,-2946 689.5,-2910 854.5,-2910 854.5,-2946"/>
<text text-anchor="middle" x="772" y="-2925.2" font-family="Courier,monospace" font-size="11.00">PostgreSQLQueryBuilder</text>
</g>
<!-- \\Gishiki\\Database\\Adapters\\Utils\\QueryBuilder\\SQLQueryBuilder -->
<g id="node13" class="node"><title>\\Gishiki\\Database\\Adapters\\Utils\\QueryBuilder\\SQLQueryBuilder</title>
<polygon fill="none" stroke="black" points="831,-2892 713,-2892 713,-2856 831,-2856 831,-2892"/>
<text text-anchor="middle" x="772" y="-2871.2" font-family="Courier,monospace" font-size="11.00">SQLQueryBuilder</text>
</g>
<!-- \\Gishiki\\Database\\Adapters\\Utils\\SQLGenerator\\PostgreSQLWrapper -->
<g id="node14" class="node"><title>\\Gishiki\\Database\\Adapters\\Utils\\SQLGenerator\\PostgreSQLWrapper</title>
<polygon fill="none" stroke="black" points="837.5,-2812 706.5,-2812 706.5,-2776 837.5,-2776 837.5,-2812"/>
<text text-anchor="middle" x="772" y="-2791.2" font-family="Courier,monospace" font-size="11.00">PostgreSQLWrapper</text>
</g>
<!-- \\Gishiki\\Database\\Adapters\\Utils\\SQLGenerator\\SQLiteWrapper -->
<g id="node15" class="node"><title>\\Gishiki\\Database\\Adapters\\Utils\\SQLGenerator\\SQLiteWrapper</title>
<polygon fill="none" stroke="black" points="824,-2758 720,-2758 720,-2722 824,-2722 824,-2758"/>
<text text-anchor="middle" x="772" y="-2737.2" font-family="Courier,monospace" font-size="11.00">SQLiteWrapper</text>
</g>
<!-- \\Gishiki\\Database\\Adapters\\Utils\\SQLGenerator\\MySQLWrapper -->
<g id="node16" class="node"><title>\\Gishiki\\Database\\Adapters\\Utils\\SQLGenerator\\MySQLWrapper</title>
<polygon fill="none" stroke="black" points="821,-2704 723,-2704 723,-2668 821,-2668 821,-2704"/>
<text text-anchor="middle" x="772" y="-2683.2" font-family="Courier,monospace" font-size="11.00">MySQLWrapper</text>
</g>
<!-- \\Gishiki\\Database\\Adapters\\Utils\\SQLGenerator\\SQLWrapper -->
<g id="node17" class="node"><title>\\Gishiki\\Database\\Adapters\\Utils\\SQLGenerator\\SQLWrapper</title>
<polygon fill="none" stroke="black" points="814,-2650 730,-2650 730,-2614 814,-2614 814,-2650"/>
<text text-anchor="middle" x="772" y="-2629.2" font-family="Courier,monospace" font-size="11.00">SQLWrapper</text>
</g>
<!-- \\Gishiki\\Database\\Adapters\\Utils\\PDODatabase -->
<g id="node18" class="node"><title>\\Gishiki\\Database\\Adapters\\Utils\\PDODatabase</title>
<polygon fill="none" stroke="black" points="817.5,-2596 726.5,-2596 726.5,-2560 817.5,-2560 817.5,-2596"/>
<text text-anchor="middle" x="772" y="-2575.2" font-family="Courier,monospace" font-size="11.00">PDODatabase</text>
</g>
<!-- \\Gishiki\\Database\\Adapters\\Mysql -->
<g id="node19" class="node"><title>\\Gishiki\\Database\\Adapters\\Mysql</title>
<polygon fill="none" stroke="black" points="799,-2542 745,-2542 745,-2506 799,-2506 799,-2542"/>
<text text-anchor="middle" x="772" y="-2521.2" font-family="Courier,monospace" font-size="11.00">Mysql</text>
</g>
<!-- \\Gishiki\\Database\\RelationalDatabaseInterface -->
<g id="node27" class="node"><title>\\Gishiki\\Database\\RelationalDatabaseInterface</title>
<polygon fill="none" stroke="black" points="522.5,-2488 323.5,-2488 323.5,-2452 522.5,-2452 522.5,-2488"/>
<text text-anchor="middle" x="423" y="-2467.2" font-family="Courier,monospace" font-size="11.00">RelationalDatabaseInterface</text>
</g>
<!-- \\Gishiki\\Database\\Adapters\\Mysql&#45;&gt;\\Gishiki\\Database\\RelationalDatabaseInterface -->
<g id="edge2" class="edge"><title>\\Gishiki\\Database\\Adapters\\Mysql&#45;&gt;\\Gishiki\\Database\\RelationalDatabaseInterface</title>
<path fill="none" stroke="black" stroke-dasharray="1,5" d="M744.919,-2519.94C700.345,-2513 607.103,-2498.49 532.555,-2486.89"/>
<polygon fill="none" stroke="black" points="533.052,-2483.43 522.633,-2485.35 531.976,-2490.35 533.052,-2483.43"/>
</g>
<!-- \\Gishiki\\Database\\Adapters\\Sqlite -->
<g id="node20" class="node"><title>\\Gishiki\\Database\\Adapters\\Sqlite</title>
<polygon fill="none" stroke="black" points="800.5,-2488 743.5,-2488 743.5,-2452 800.5,-2452 800.5,-2488"/>
<text text-anchor="middle" x="772" y="-2467.2" font-family="Courier,monospace" font-size="11.00">Sqlite</text>
</g>
<!-- \\Gishiki\\Database\\Adapters\\Sqlite&#45;&gt;\\Gishiki\\Database\\RelationalDatabaseInterface -->
<g id="edge3" class="edge"><title>\\Gishiki\\Database\\Adapters\\Sqlite&#45;&gt;\\Gishiki\\Database\\RelationalDatabaseInterface</title>
<path fill="none" stroke="black" stroke-dasharray="1,5" d="M743.481,-2470C698.471,-2470 606.74,-2470 533.072,-2470"/>
<polygon fill="none" stroke="black" points="532.803,-2466.5 522.803,-2470 532.803,-2473.5 532.803,-2466.5"/>
</g>
<!-- \\Gishiki\\Database\\Adapters\\Pgsql -->
<g id="node21" class="node"><title>\\Gishiki\\Database\\Adapters\\Pgsql</title>
<polygon fill="none" stroke="black" points="799,-2434 745,-2434 745,-2398 799,-2398 799,-2434"/>
<text text-anchor="middle" x="772" y="-2413.2" font-family="Courier,monospace" font-size="11.00">Pgsql</text>
</g>
<!-- \\Gishiki\\Database\\Adapters\\Pgsql&#45;&gt;\\Gishiki\\Database\\RelationalDatabaseInterface -->
<g id="edge4" class="edge"><title>\\Gishiki\\Database\\Adapters\\Pgsql&#45;&gt;\\Gishiki\\Database\\RelationalDatabaseInterface</title>
<path fill="none" stroke="black" stroke-dasharray="1,5" d="M744.919,-2420.06C700.345,-2427 607.103,-2441.51 532.555,-2453.11"/>
<polygon fill="none" stroke="black" points="531.976,-2449.65 522.633,-2454.65 533.052,-2456.57 531.976,-2449.65"/>
</g>
<!-- \\Gishiki\\Database\\ORM\\StructureException -->
<g id="node22" class="node"><title>\\Gishiki\\Database\\ORM\\StructureException</title>
<polygon fill="none" stroke="black" points="841,-2354 703,-2354 703,-2318 841,-2318 841,-2354"/>
<text text-anchor="middle" x="772" y="-2333.2" font-family="Courier,monospace" font-size="11.00">StructureException</text>
</g>
<!-- \\Gishiki\\Core\\Exception -->
<g id="node61" class="node"><title>\\Gishiki\\Core\\Exception</title>
<polygon fill="none" stroke="black" points="461.5,-1422 384.5,-1422 384.5,-1386 461.5,-1386 461.5,-1422"/>
<text text-anchor="middle" x="423" y="-1401.2" font-family="Courier,monospace" font-size="11.00">Exception</text>
</g>
<!-- \\Gishiki\\Database\\ORM\\StructureException&#45;&gt;\\Gishiki\\Core\\Exception -->
<g id="edge5" class="edge"><title>\\Gishiki\\Database\\ORM\\StructureException&#45;&gt;\\Gishiki\\Core\\Exception</title>
<path fill="none" stroke="black" d="M702.973,-2329.86C688.949,-2325.74 675.328,-2319.22 665,-2309 648.473,-2292.65 469.042,-1582.87 431.044,-1432"/>
<polygon fill="none" stroke="black" points="434.392,-1430.97 428.557,-1422.13 427.604,-1432.68 434.392,-1430.97"/>
</g>
<!-- \\Gishiki\\Database\\ORM\\DatabaseStructure -->
<g id="node23" class="node"><title>\\Gishiki\\Database\\ORM\\DatabaseStructure</title>
<polygon fill="none" stroke="black" points="837.5,-2300 706.5,-2300 706.5,-2264 837.5,-2264 837.5,-2300"/>
<text text-anchor="middle" x="772" y="-2279.2" font-family="Courier,monospace" font-size="11.00">DatabaseStructure</text>
</g>
<!-- \\Gishiki\\Database\\DatabaseException -->
<g id="node24" class="node"><title>\\Gishiki\\Database\\DatabaseException</title>
<polygon fill="none" stroke="black" points="837.5,-2246 706.5,-2246 706.5,-2210 837.5,-2210 837.5,-2246"/>
<text text-anchor="middle" x="772" y="-2225.2" font-family="Courier,monospace" font-size="11.00">DatabaseException</text>
</g>
<!-- \\Gishiki\\Database\\DatabaseException&#45;&gt;\\Gishiki\\Core\\Exception -->
<g id="edge1" class="edge"><title>\\Gishiki\\Database\\DatabaseException&#45;&gt;\\Gishiki\\Core\\Exception</title>
<path fill="none" stroke="black" d="M706.254,-2222.46C691.171,-2218.4 676.252,-2211.76 665,-2201 434.04,-1980.04 422.261,-1546.18 423.34,-1432.05"/>
<polygon fill="none" stroke="black" points="426.84,-1432.07 423.477,-1422.02 419.84,-1431.98 426.84,-1432.07"/>
</g>
<!-- \\Gishiki\\Database\\DatabaseManager -->
<g id="node25" class="node"><title>\\Gishiki\\Database\\DatabaseManager</title>
<polygon fill="none" stroke="black" points="831,-2192 713,-2192 713,-2156 831,-2156 831,-2192"/>
<text text-anchor="middle" x="772" y="-2171.2" font-family="Courier,monospace" font-size="11.00">DatabaseManager</text>
</g>
<!-- \\Gishiki\\Database\\DatabaseInterface -->
<g id="node26" class="node"><title>\\Gishiki\\Database\\DatabaseInterface</title>
<polygon fill="none" stroke="black" points="163.5,-2488 32.5,-2488 32.5,-2452 163.5,-2452 163.5,-2488"/>
<text text-anchor="middle" x="98" y="-2467.2" font-family="Courier,monospace" font-size="11.00">DatabaseInterface</text>
</g>
<!-- \\Gishiki\\Database\\RelationalDatabaseInterface&#45;&gt;\\Gishiki\\Database\\DatabaseInterface -->
<g id="edge23" class="edge"><title>\\Gishiki\\Database\\RelationalDatabaseInterface&#45;&gt;\\Gishiki\\Database\\DatabaseInterface</title>
<path fill="none" stroke="black" d="M323.334,-2470C275.314,-2470 218.512,-2470 174.081,-2470"/>
<polygon fill="none" stroke="black" points="173.933,-2466.5 163.933,-2470 173.933,-2473.5 173.933,-2466.5"/>
</g>
<!-- \\Gishiki\\Security\\Hashing\\HashingException -->
<g id="node28" class="node"><title>\\Gishiki\\Security\\Hashing\\HashingException</title>
<polygon fill="none" stroke="black" points="834.5,-2084 709.5,-2084 709.5,-2048 834.5,-2048 834.5,-2084"/>
<text text-anchor="middle" x="772" y="-2063.2" font-family="Courier,monospace" font-size="11.00">HashingException</text>
</g>
<!-- \\Gishiki\\Security\\Hashing\\HashingException&#45;&gt;\\Gishiki\\Core\\Exception -->
<g id="edge6" class="edge"><title>\\Gishiki\\Security\\Hashing\\HashingException&#45;&gt;\\Gishiki\\Core\\Exception</title>
<path fill="none" stroke="black" d="M709.245,-2060.55C693.33,-2056.57 677.255,-2049.94 665,-2039 474.438,-1868.9 433.814,-1531.98 425.826,-1432.37"/>
<polygon fill="none" stroke="black" points="429.3,-1431.9 425.059,-1422.19 422.32,-1432.42 429.3,-1431.9"/>
</g>
<!-- \\Gishiki\\Security\\Hashing\\Hasher -->
<g id="node29" class="node"><title>\\Gishiki\\Security\\Hashing\\Hasher</title>
<polygon fill="none" stroke="black" points="800.5,-2030 743.5,-2030 743.5,-1994 800.5,-1994 800.5,-2030"/>
<text text-anchor="middle" x="772" y="-2009.2" font-family="Courier,monospace" font-size="11.00">Hasher</text>
</g>
<!-- \\Gishiki\\Security\\Hashing\\Algorithm -->
<g id="node30" class="node"><title>\\Gishiki\\Security\\Hashing\\Algorithm</title>
<polygon fill="none" stroke="black" points="814,-1976 730,-1976 730,-1940 814,-1940 814,-1976"/>
<text text-anchor="start" x="738" y="-1961.2" font-family="Courier,monospace" font-size="11.00">«abstract»</text>
<text text-anchor="start" x="741.5" y="-1949.2" font-family="Courier,monospace" font-size="11.00">Algorithm</text>
</g>
<!-- \\Gishiki\\Security\\Encryption\\Asymmetric\\PublicKey -->
<g id="node31" class="node"><title>\\Gishiki\\Security\\Encryption\\Asymmetric\\PublicKey</title>
<polygon fill="none" stroke="black" points="810.5,-1868 733.5,-1868 733.5,-1832 810.5,-1832 810.5,-1868"/>
<text text-anchor="middle" x="772" y="-1847.2" font-family="Courier,monospace" font-size="11.00">PublicKey</text>
</g>
<!-- \\Gishiki\\Security\\Encryption\\Asymmetric\\Cryptography -->
<g id="node32" class="node"><title>\\Gishiki\\Security\\Encryption\\Asymmetric\\Cryptography</title>
<polygon fill="none" stroke="black" points="821,-1814 723,-1814 723,-1778 821,-1778 821,-1814"/>
<text text-anchor="start" x="738" y="-1799.2" font-family="Courier,monospace" font-size="11.00">«abstract»</text>
<text text-anchor="start" x="731" y="-1787.2" font-family="Courier,monospace" font-size="11.00">Cryptography</text>
</g>
<!-- \\Gishiki\\Security\\Encryption\\Asymmetric\\AsymmetricException -->
<g id="node33" class="node"><title>\\Gishiki\\Security\\Encryption\\Asymmetric\\AsymmetricException</title>
<polygon fill="none" stroke="black" points="844.5,-1760 699.5,-1760 699.5,-1724 844.5,-1724 844.5,-1760"/>
<text text-anchor="middle" x="772" y="-1739.2" font-family="Courier,monospace" font-size="11.00">AsymmetricException</text>
</g>
<!-- \\Gishiki\\Security\\Encryption\\Asymmetric\\AsymmetricException&#45;&gt;\\Gishiki\\Core\\Exception -->
<g id="edge7" class="edge"><title>\\Gishiki\\Security\\Encryption\\Asymmetric\\AsymmetricException&#45;&gt;\\Gishiki\\Core\\Exception</title>
<path fill="none" stroke="black" d="M699.268,-1730.64C687.236,-1726.84 675.322,-1721.77 665,-1715 550.6,-1639.97 467.69,-1491.98 437.021,-1431.12"/>
<polygon fill="none" stroke="black" points="440.135,-1429.52 432.55,-1422.12 433.866,-1432.64 440.135,-1429.52"/>
</g>
<!-- \\Gishiki\\Security\\Encryption\\Asymmetric\\PrivateKey -->
<g id="node34" class="node"><title>\\Gishiki\\Security\\Encryption\\Asymmetric\\PrivateKey</title>
<polygon fill="none" stroke="black" points="814,-1706 730,-1706 730,-1670 814,-1670 814,-1706"/>
<text text-anchor="middle" x="772" y="-1685.2" font-family="Courier,monospace" font-size="11.00">PrivateKey</text>
</g>
<!-- \\Gishiki\\Security\\Encryption\\Symmetric\\SymmetricException -->
<g id="node35" class="node"><title>\\Gishiki\\Security\\Encryption\\Symmetric\\SymmetricException</title>
<polygon fill="none" stroke="black" points="841,-1626 703,-1626 703,-1590 841,-1590 841,-1626"/>
<text text-anchor="middle" x="772" y="-1605.2" font-family="Courier,monospace" font-size="11.00">SymmetricException</text>
</g>
<!-- \\Gishiki\\Security\\Encryption\\Symmetric\\SymmetricException&#45;&gt;\\Gishiki\\Core\\Exception -->
<g id="edge8" class="edge"><title>\\Gishiki\\Security\\Encryption\\Symmetric\\SymmetricException&#45;&gt;\\Gishiki\\Core\\Exception</title>
<path fill="none" stroke="black" d="M702.915,-1594.79C690.009,-1591.14 676.847,-1586.6 665,-1581 579.237,-1540.47 493.123,-1467.63 450.853,-1429.24"/>
<polygon fill="none" stroke="black" points="452.976,-1426.44 443.238,-1422.27 448.248,-1431.6 452.976,-1426.44"/>
</g>
<!-- \\Gishiki\\Security\\Encryption\\Symmetric\\Cryptography -->
<g id="node36" class="node"><title>\\Gishiki\\Security\\Encryption\\Symmetric\\Cryptography</title>
<polygon fill="none" stroke="black" points="821,-1572 723,-1572 723,-1536 821,-1536 821,-1572"/>
<text text-anchor="start" x="738" y="-1557.2" font-family="Courier,monospace" font-size="11.00">«abstract»</text>
<text text-anchor="start" x="731" y="-1545.2" font-family="Courier,monospace" font-size="11.00">Cryptography</text>
</g>
<!-- \\Gishiki\\Security\\Encryption\\Symmetric\\SecretKey -->
<g id="node37" class="node"><title>\\Gishiki\\Security\\Encryption\\Symmetric\\SecretKey</title>
<polygon fill="none" stroke="black" points="810.5,-1518 733.5,-1518 733.5,-1482 810.5,-1482 810.5,-1518"/>
<text text-anchor="middle" x="772" y="-1497.2" font-family="Courier,monospace" font-size="11.00">SecretKey</text>
</g>
<!-- \\Gishiki\\Services\\ErrorHandling -->
<g id="node38" class="node"><title>\\Gishiki\\Services\\ErrorHandling</title>
<polygon fill="none" stroke="black" points="1038,-1026 934,-1026 934,-990 1038,-990 1038,-1026"/>
<text text-anchor="middle" x="986" y="-1005.2" font-family="Courier,monospace" font-size="11.00">ErrorHandling</text>
</g>
<!-- \\Gishiki\\Core\\MVC\\Controller\\Controller -->
<g id="node57" class="node"><title>\\Gishiki\\Core\\MVC\\Controller\\Controller</title>
<polygon fill="none" stroke="black" points="814,-1026 730,-1026 730,-990 814,-990 814,-1026"/>
<text text-anchor="start" x="738" y="-1011.2" font-family="Courier,monospace" font-size="11.00">«abstract»</text>
<text text-anchor="start" x="738" y="-999.2" font-family="Courier,monospace" font-size="11.00">Controller</text>
</g>
<!-- \\Gishiki\\Services\\ErrorHandling&#45;&gt;\\Gishiki\\Core\\MVC\\Controller\\Controller -->
<g id="edge9" class="edge"><title>\\Gishiki\\Services\\ErrorHandling&#45;&gt;\\Gishiki\\Core\\MVC\\Controller\\Controller</title>
<path fill="none" stroke="black" d="M933.951,-1008C900.784,-1008 857.697,-1008 824.45,-1008"/>
<polygon fill="none" stroke="black" points="824.027,-1004.5 814.027,-1008 824.027,-1011.5 824.027,-1004.5"/>
</g>
<!-- \\Gishiki\\Algorithms\\Collections\\SerializationException -->
<g id="node39" class="node"><title>\\Gishiki\\Algorithms\\Collections\\SerializationException</title>
<polygon fill="none" stroke="black" points="854.5,-508 689.5,-508 689.5,-472 854.5,-472 854.5,-508"/>
<text text-anchor="middle" x="772" y="-487.2" font-family="Courier,monospace" font-size="11.00">SerializationException</text>
</g>
<!-- \\Gishiki\\Algorithms\\Collections\\SerializationException&#45;&gt;\\Gishiki\\Core\\Exception -->
<g id="edge11" class="edge"><title>\\Gishiki\\Algorithms\\Collections\\SerializationException&#45;&gt;\\Gishiki\\Core\\Exception</title>
<path fill="none" stroke="black" d="M689.388,-499.16C680.048,-503.342 671.547,-509.107 665,-517 542.034,-665.25 742.453,-1242.16 610,-1382 575.295,-1418.64 514.306,-1418.94 471.658,-1413.49"/>
<polygon fill="none" stroke="black" points="471.902,-1409.99 461.508,-1412.05 470.914,-1416.92 471.902,-1409.99"/>
</g>
<!-- \\Gishiki\\Algorithms\\Collections\\SerializableCollection -->
<g id="node40" class="node"><title>\\Gishiki\\Algorithms\\Collections\\SerializableCollection</title>
<polygon fill="none" stroke="black" points="854.5,-400 689.5,-400 689.5,-364 854.5,-364 854.5,-400"/>
<text text-anchor="middle" x="772" y="-379.2" font-family="Courier,monospace" font-size="11.00">SerializableCollection</text>
</g>
<!-- \\Gishiki\\Algorithms\\Collections\\GenericCollection -->
<g id="node63" class="node"><title>\\Gishiki\\Algorithms\\Collections\\GenericCollection</title>
<ellipse fill="none" stroke="black" cx="423" cy="-72" rx="186.567" ry="18"/>
<text text-anchor="middle" x="423" y="-68.3" font-family="Times,serif" font-size="14.00" fill="gray">Gishiki\Algorithms\CollectionsGenericCollection</text>
</g>
<!-- \\Gishiki\\Algorithms\\Collections\\SerializableCollection&#45;&gt;\\Gishiki\\Algorithms\\Collections\\GenericCollection -->
<g id="edge12" class="edge"><title>\\Gishiki\\Algorithms\\Collections\\SerializableCollection&#45;&gt;\\Gishiki\\Algorithms\\Collections\\GenericCollection</title>
<path fill="none" stroke="black" d="M689.284,-364.221C680.768,-360.82 672.497,-356.784 665,-352 558.469,-284.023 473.162,-154.821 439.514,-98.9052"/>
<polygon fill="none" stroke="black" points="442.499,-97.0776 434.38,-90.2713 436.482,-100.655 442.499,-97.0776"/>
</g>
<!-- \\Gishiki\\Algorithms\\Collections\\StackException -->
<g id="node41" class="node"><title>\\Gishiki\\Algorithms\\Collections\\StackException</title>
<polygon fill="none" stroke="black" points="827.5,-616 716.5,-616 716.5,-580 827.5,-580 827.5,-616"/>
<text text-anchor="middle" x="772" y="-595.2" font-family="Courier,monospace" font-size="11.00">StackException</text>
</g>
<!-- \\Gishiki\\Algorithms\\Collections\\StackException&#45;&gt;\\Gishiki\\Core\\Exception -->
<g id="edge13" class="edge"><title>\\Gishiki\\Algorithms\\Collections\\StackException&#45;&gt;\\Gishiki\\Core\\Exception</title>
<path fill="none" stroke="black" d="M731.854,-616.025C708.214,-629.12 679.868,-649.236 665,-676 588.58,-813.563 719.027,-1268.52 610,-1382 575.139,-1418.28 514.463,-1418.74 471.918,-1413.43"/>
<polygon fill="none" stroke="black" points="472.177,-1409.93 461.788,-1412.01 471.208,-1416.86 472.177,-1409.93"/>
</g>
<!-- \\Gishiki\\Algorithms\\Collections\\StackCollection -->
<g id="node42" class="node"><title>\\Gishiki\\Algorithms\\Collections\\StackCollection</title>
<polygon fill="none" stroke="black" points="831,-454 713,-454 713,-418 831,-418 831,-454"/>
<text text-anchor="middle" x="772" y="-433.2" font-family="Courier,monospace" font-size="11.00">StackCollection</text>
</g>
<!-- \\Gishiki\\Algorithms\\Collections\\StackCollection&#45;&gt;\\Gishiki\\Algorithms\\Collections\\GenericCollection -->
<g id="edge14" class="edge"><title>\\Gishiki\\Algorithms\\Collections\\StackCollection&#45;&gt;\\Gishiki\\Algorithms\\Collections\\GenericCollection</title>
<path fill="none" stroke="black" d="M712.889,-428.833C696.399,-424.847 679.109,-418.646 665,-409 544.949,-326.922 464.202,-164.287 435.557,-99.5354"/>
<polygon fill="none" stroke="black" points="438.611,-97.7818 431.409,-90.011 432.193,-100.577 438.611,-97.7818"/>
</g>
<!-- \\Gishiki\\Algorithms\\Collections\\DeserializationException -->
<g id="node43" class="node"><title>\\Gishiki\\Algorithms\\Collections\\DeserializationException</title>
<polygon fill="none" stroke="black" points="861.5,-562 682.5,-562 682.5,-526 861.5,-526 861.5,-562"/>
<text text-anchor="middle" x="772" y="-541.2" font-family="Courier,monospace" font-size="11.00">DeserializationException</text>
</g>
<!-- \\Gishiki\\Algorithms\\Collections\\DeserializationException&#45;&gt;\\Gishiki\\Core\\Exception -->
<g id="edge15" class="edge"><title>\\Gishiki\\Algorithms\\Collections\\DeserializationException&#45;&gt;\\Gishiki\\Core\\Exception</title>
<path fill="none" stroke="black" d="M682.339,-556.763C675.792,-560.492 669.862,-565.164 665,-571 549.386,-709.791 734.495,-1251.12 610,-1382 575.321,-1418.46 514.608,-1418.88 472.004,-1413.51"/>
<polygon fill="none" stroke="black" points="472.25,-1410.01 461.859,-1412.08 471.273,-1416.94 472.25,-1410.01"/>
</g>
<!-- \\Gishiki\\Algorithms\\Strings\\SimpleLexer -->
<g id="node44" class="node"><title>\\Gishiki\\Algorithms\\Strings\\SimpleLexer</title>
<polygon fill="none" stroke="black" points="817.5,-320 726.5,-320 726.5,-284 817.5,-284 817.5,-320"/>
<text text-anchor="start" x="738" y="-305.2" font-family="Courier,monospace" font-size="11.00">«abstract»</text>
<text text-anchor="start" x="734.5" y="-293.2" font-family="Courier,monospace" font-size="11.00">SimpleLexer</text>
</g>
<!-- \\Gishiki\\Algorithms\\Strings\\Manipulation -->
<g id="node45" class="node"><title>\\Gishiki\\Algorithms\\Strings\\Manipulation</title>
<polygon fill="none" stroke="black" points="821,-266 723,-266 723,-230 821,-230 821,-266"/>
<text text-anchor="start" x="738" y="-251.2" font-family="Courier,monospace" font-size="11.00">«abstract»</text>
<text text-anchor="start" x="731" y="-239.2" font-family="Courier,monospace" font-size="11.00">Manipulation</text>
</g>
<!-- \\Gishiki\\Algorithms\\Base64 -->
<g id="node46" class="node"><title>\\Gishiki\\Algorithms\\Base64</title>
<polygon fill="none" stroke="black" points="814,-212 730,-212 730,-176 814,-176 814,-212"/>
<text text-anchor="start" x="738" y="-197.2" font-family="Courier,monospace" font-size="11.00">«abstract»</text>
<text text-anchor="start" x="751.5" y="-185.2" font-family="Courier,monospace" font-size="11.00">Base64</text>
</g>
<!-- \\Gishiki\\Algorithms\\XmlDomConstructor -->
<g id="node47" class="node"><title>\\Gishiki\\Algorithms\\XmlDomConstructor</title>
<polygon fill="none" stroke="black" points="837.5,-158 706.5,-158 706.5,-122 837.5,-122 837.5,-158"/>
<text text-anchor="middle" x="772" y="-137.2" font-family="Courier,monospace" font-size="11.00">XmlDomConstructor</text>
</g>
<!-- \\DOMDocument -->
<g id="node62" class="node"><title>\\DOMDocument</title>
<ellipse fill="none" stroke="black" cx="423" cy="-18" rx="71.4873" ry="18"/>
<text text-anchor="middle" x="423" y="-14.3" font-family="Times,serif" font-size="14.00" fill="gray">\DOMDocument</text>
</g>
<!-- \\Gishiki\\Algorithms\\XmlDomConstructor&#45;&gt;\\DOMDocument -->
<g id="edge10" class="edge"><title>\\Gishiki\\Algorithms\\XmlDomConstructor&#45;&gt;\\DOMDocument</title>
<path fill="none" stroke="black" d="M747.116,-121.825C716.914,-99.8413 662.499,-63.4892 610,-45 576.111,-33.0651 536.965,-26.4019 503.353,-22.6836"/>
<polygon fill="none" stroke="black" points="503.419,-19.1718 493.111,-21.6216 502.697,-26.1344 503.419,-19.1718"/>
</g>
<!-- \\Gishiki\\Core\\Router\\RouterException -->
<g id="node48" class="node"><title>\\Gishiki\\Core\\Router\\RouterException</title>
<polygon fill="none" stroke="black" points="831,-1350 713,-1350 713,-1314 831,-1314 831,-1350"/>
<text text-anchor="middle" x="772" y="-1329.2" font-family="Courier,monospace" font-size="11.00">RouterException</text>
</g>
<!-- \\Gishiki\\Core\\Router\\RouterException&#45;&gt;\\Gishiki\\Core\\Exception -->
<g id="edge16" class="edge"><title>\\Gishiki\\Core\\Router\\RouterException&#45;&gt;\\Gishiki\\Core\\Exception</title>
<path fill="none" stroke="black" d="M721.228,-1350.05C689.729,-1360.83 647.933,-1373.94 610,-1382 563.629,-1391.86 509.748,-1397.62 471.952,-1400.76"/>
<polygon fill="none" stroke="black" points="471.427,-1397.29 461.737,-1401.57 471.984,-1404.27 471.427,-1397.29"/>
</g>
<!-- \\Gishiki\\Core\\Router\\Router -->
<g id="node49" class="node"><title>\\Gishiki\\Core\\Router\\Router</title>
<polygon fill="none" stroke="black" points="800.5,-1296 743.5,-1296 743.5,-1260 800.5,-1260 800.5,-1296"/>
<text text-anchor="middle" x="772" y="-1275.2" font-family="Courier,monospace" font-size="11.00">Router</text>
</g>
<!-- \\Gishiki\\Core\\Router\\Route -->
<g id="node50" class="node"><title>\\Gishiki\\Core\\Router\\Route</title>
<polygon fill="none" stroke="black" points="799,-1242 745,-1242 745,-1206 799,-1206 799,-1242"/>
<text text-anchor="middle" x="772" y="-1221.2" font-family="Courier,monospace" font-size="11.00">Route</text>
</g>
<!-- \\Gishiki\\Core\\Router\\RouteInterface -->
<g id="node51" class="node"><title>\\Gishiki\\Core\\Router\\RouteInterface</title>
<polygon fill="none" stroke="black" points="478.5,-1242 367.5,-1242 367.5,-1206 478.5,-1206 478.5,-1242"/>
<text text-anchor="middle" x="423" y="-1221.2" font-family="Courier,monospace" font-size="11.00">RouteInterface</text>
</g>
<!-- \\Gishiki\\Core\\Router\\Route&#45;&gt;\\Gishiki\\Core\\Router\\RouteInterface -->
<g id="edge17" class="edge"><title>\\Gishiki\\Core\\Router\\Route&#45;&gt;\\Gishiki\\Core\\Router\\RouteInterface</title>
<path fill="none" stroke="black" stroke-dasharray="1,5" d="M744.919,-1224C690.992,-1224 565.833,-1224 488.723,-1224"/>
<polygon fill="none" stroke="black" points="488.638,-1220.5 478.638,-1224 488.638,-1227.5 488.638,-1220.5"/>
</g>
<!-- \\Gishiki\\Core\\Router\\MatchableRoute -->
<g id="node52" class="node"><title>\\Gishiki\\Core\\Router\\MatchableRoute</title>
<polygon fill="none" stroke="black" points="827.5,-1188 716.5,-1188 716.5,-1152 827.5,-1152 827.5,-1188"/>
<text text-anchor="middle" x="772" y="-1167.2" font-family="Courier,monospace" font-size="11.00">MatchableRoute</text>
</g>
<!-- \\Gishiki\\Core\\MVC\\Controller\\Plugins\\ResponseSerializer -->
<g id="node53" class="node"><title>\\Gishiki\\Core\\MVC\\Controller\\Plugins\\ResponseSerializer</title>
<polygon fill="none" stroke="black" points="841,-954 703,-954 703,-918 841,-918 841,-954"/>
<text text-anchor="middle" x="772" y="-933.2" font-family="Courier,monospace" font-size="11.00">ResponseSerializer</text>
</g>
<!-- \\Gishiki\\Core\\MVC\\Controller\\Plugin -->
<g id="node56" class="node"><title>\\Gishiki\\Core\\MVC\\Controller\\Plugin</title>
<polygon fill="none" stroke="black" points="465,-900 381,-900 381,-864 465,-864 465,-900"/>
<text text-anchor="start" x="389" y="-885.2" font-family="Courier,monospace" font-size="11.00">«abstract»</text>
<text text-anchor="start" x="402.5" y="-873.2" font-family="Courier,monospace" font-size="11.00">Plugin</text>
</g>
<!-- \\Gishiki\\Core\\MVC\\Controller\\Plugins\\ResponseSerializer&#45;&gt;\\Gishiki\\Core\\MVC\\Controller\\Plugin -->
<g id="edge19" class="edge"><title>\\Gishiki\\Core\\MVC\\Controller\\Plugins\\ResponseSerializer&#45;&gt;\\Gishiki\\Core\\MVC\\Controller\\Plugin</title>
<path fill="none" stroke="black" d="M702.858,-925.396C636.062,-915.001 535.736,-899.388 475.388,-889.997"/>
<polygon fill="none" stroke="black" points="475.75,-886.511 465.33,-888.432 474.673,-893.428 475.75,-886.511"/>
</g>
<!-- \\Gishiki\\Core\\MVC\\Controller\\Plugins\\RequestDeserializer -->
<g id="node54" class="node"><title>\\Gishiki\\Core\\MVC\\Controller\\Plugins\\RequestDeserializer</title>
<polygon fill="none" stroke="black" points="844.5,-900 699.5,-900 699.5,-864 844.5,-864 844.5,-900"/>
<text text-anchor="middle" x="772" y="-879.2" font-family="Courier,monospace" font-size="11.00">RequestDeserializer</text>
</g>
<!-- \\Gishiki\\Core\\MVC\\Controller\\Plugins\\RequestDeserializer&#45;&gt;\\Gishiki\\Core\\MVC\\Controller\\Plugin -->
<g id="edge20" class="edge"><title>\\Gishiki\\Core\\MVC\\Controller\\Plugins\\RequestDeserializer&#45;&gt;\\Gishiki\\Core\\MVC\\Controller\\Plugin</title>
<path fill="none" stroke="black" d="M699.101,-882C632.434,-882 534.864,-882 475.615,-882"/>
<polygon fill="none" stroke="black" points="475.372,-878.5 465.372,-882 475.372,-885.5 475.372,-878.5"/>
</g>
<!-- \\Gishiki\\Core\\MVC\\Controller\\Plugins\\ResponseAssembler -->
<g id="node55" class="node"><title>\\Gishiki\\Core\\MVC\\Controller\\Plugins\\ResponseAssembler</title>
<polygon fill="none" stroke="black" points="837.5,-846 706.5,-846 706.5,-810 837.5,-810 837.5,-846"/>
<text text-anchor="middle" x="772" y="-825.2" font-family="Courier,monospace" font-size="11.00">ResponseAssembler</text>
</g>
<!-- \\Gishiki\\Core\\MVC\\Controller\\Plugins\\ResponseAssembler&#45;&gt;\\Gishiki\\Core\\MVC\\Controller\\Plugin -->
<g id="edge21" class="edge"><title>\\Gishiki\\Core\\MVC\\Controller\\Plugins\\ResponseAssembler&#45;&gt;\\Gishiki\\Core\\MVC\\Controller\\Plugin</title>
<path fill="none" stroke="black" d="M706.139,-838.094C639.383,-848.482 536.723,-864.458 475.379,-874.004"/>
<polygon fill="none" stroke="black" points="474.506,-870.598 465.163,-875.594 475.582,-877.515 474.506,-870.598"/>
</g>
<!-- \\Gishiki\\Core\\MVC\\Controller\\ControllerException -->
<g id="node58" class="node"><title>\\Gishiki\\Core\\MVC\\Controller\\ControllerException</title>
<polygon fill="none" stroke="black" points="844.5,-1080 699.5,-1080 699.5,-1044 844.5,-1044 844.5,-1080"/>
<text text-anchor="middle" x="772" y="-1059.2" font-family="Courier,monospace" font-size="11.00">ControllerException</text>
</g>
<!-- \\Gishiki\\Core\\MVC\\Controller\\ControllerException&#45;&gt;\\Gishiki\\Core\\Exception -->
<g id="edge18" class="edge"><title>\\Gishiki\\Core\\MVC\\Controller\\ControllerException&#45;&gt;\\Gishiki\\Core\\Exception</title>
<path fill="none" stroke="black" d="M734.443,-1080.07C711.092,-1093.47 682.09,-1113.91 665,-1140 604.559,-1232.26 692.005,-1308.24 610,-1382 572.892,-1415.38 513.416,-1416.64 471.735,-1412.3"/>
<polygon fill="none" stroke="black" points="471.889,-1408.79 461.546,-1411.09 471.065,-1415.74 471.889,-1408.79"/>
</g>
<!-- \\Gishiki\\Core\\Application -->
<g id="node59" class="node"><title>\\Gishiki\\Core\\Application</title>
<polygon fill="none" stroke="black" points="817.5,-778 726.5,-778 726.5,-742 817.5,-742 817.5,-778"/>
<text text-anchor="middle" x="772" y="-757.2" font-family="Courier,monospace" font-size="11.00">Application</text>
</g>
<!-- \\Gishiki\\Core\\Config -->
<g id="node60" class="node"><title>\\Gishiki\\Core\\Config</title>
<polygon fill="none" stroke="black" points="800.5,-724 743.5,-724 743.5,-688 800.5,-688 800.5,-724"/>
<text text-anchor="middle" x="772" y="-703.2" font-family="Courier,monospace" font-size="11.00">Config</text>
</g>
<!-- \\Exception -->
<g id="node64" class="node"><title>\\Exception</title>
<ellipse fill="none" stroke="black" cx="98" cy="-72" rx="40.8928" ry="18"/>
<text text-anchor="middle" x="98" y="-68.3" font-family="Times,serif" font-size="14.00" fill="gray">xception</text>
</g>
<!-- \\Gishiki\\Core\\Exception&#45;&gt;\\Exception -->
<g id="edge22" class="edge"><title>\\Gishiki\\Core\\Exception&#45;&gt;\\Exception</title>
<path fill="none" stroke="black" d="M384.397,-1411.83C342.075,-1418.23 274.252,-1420.77 236,-1382 142.554,-1287.28 105.782,-281.979 99.8728,-100.12"/>
<polygon fill="none" stroke="black" points="103.368,-99.9034 99.5491,-90.0207 96.3713,-100.128 103.368,-99.9034"/>
</g>
</g>
</svg>
